<svg width="45" height="27" viewBox="0 0 45 27" fill="none" xmlns="http://www.w3.org/2000/svg">
<path d="M21.0351 17.1224C20.9298 17.1224 20.8245 17.1022 20.7254 17.0638L1.46558 9.35705C1.14981 9.23171 0.943359 8.92644 0.943359 8.58881C0.943359 8.24917 1.14982 7.94591 1.46558 7.82057L20.7274 0.113819C20.9258 0.0349768 21.1464 0.0349768 21.3448 0.113819L40.6067 7.82057C40.9204 7.94591 41.1269 8.24915 41.1269 8.58881C41.1269 8.92642 40.9204 9.2317 40.6067 9.35705L21.3448 17.0638C21.2456 17.1022 21.1403 17.1224 21.0351 17.1224ZM4.00191 8.58916L21.0351 15.4021L38.0682 8.58916L21.0351 1.77621L4.00191 8.58916Z" fill="#242424"/>
<path d="M21.0351 26.0459C17.1649 26.0459 13.254 24.8047 9.41016 22.3564V22.3584C9.17131 22.2048 9.02557 21.942 9.02557 21.6589V11.8215C9.02557 11.3646 9.39802 10.9926 9.85549 10.9926C10.3129 10.9926 10.6854 11.3645 10.6854 11.8215V21.1999C17.6467 25.4777 24.4276 25.4777 31.3863 21.1999V11.8215C31.3863 11.3646 31.7567 10.9946 32.2142 10.9946C32.6736 10.9946 33.0441 11.3645 33.0441 11.8215V21.6589C33.0441 21.942 32.9004 22.2048 32.6615 22.3584C28.8156 24.8047 24.9054 26.0459 21.0351 26.0459Z" fill="#242424"/>
<path d="M40.299 13.73C39.8395 13.73 39.4691 13.36 39.4691 12.9031V8.58891C39.4691 8.13202 39.8395 7.76001 40.299 7.76001C40.7564 7.76001 41.1269 8.13189 41.1269 8.58881L41.1269 12.9031C41.1269 13.1214 41.0398 13.3337 40.884 13.4874C40.7281 13.643 40.5176 13.73 40.299 13.73Z" fill="#242424"/>
<path d="M40.299 18.364C39.0238 18.364 37.8761 17.5978 37.3883 16.4232C36.9004 15.2466 37.1697 13.8941 38.0704 12.9945C38.9711 12.0949 40.3253 11.826 41.5034 12.3132C42.6794 12.8004 43.4465 13.9467 43.4465 15.2204C43.4445 16.955 42.0357 18.362 40.299 18.364ZM40.299 13.73C39.6958 13.73 39.1513 14.0923 38.9205 14.6502C38.6898 15.2062 38.8173 15.847 39.2424 16.2716C39.6695 16.6982 40.3111 16.8255 40.8677 16.5951C41.4244 16.3646 41.7887 15.8228 41.7887 15.2204C41.7867 14.3976 41.1208 13.732 40.299 13.73Z" fill="#242424"/>
<path d="M43.2278 25.1527H37.3677C37.1227 25.1527 36.89 25.0435 36.7321 24.8555C36.5742 24.6675 36.5074 24.4188 36.5519 24.1783L37.8676 16.7386C37.9506 16.2918 38.3797 15.9966 38.8271 16.0755C39.2744 16.1543 39.576 16.5789 39.5011 17.0277L38.3575 23.497H42.2398L41.0942 17.0277C41.0537 16.8093 41.1023 16.5849 41.2278 16.403C41.3533 16.2211 41.5476 16.0977 41.7662 16.0593C41.9828 16.0209 42.2075 16.0714 42.3876 16.1988C42.5698 16.3262 42.6913 16.5203 42.7277 16.7386L44.0434 24.1783C44.0879 24.4189 44.0211 24.6675 43.8633 24.8556C43.7054 25.0436 43.4727 25.1527 43.2278 25.1527Z" fill="#242424"/>
</svg>
